<?xml version="1.0" standalone="no"?>
<!DOCTYPE svg PUBLIC "-//W3C//DTD SVG 20010904//EN"
 "http://www.w3.org/TR/2001/REC-SVG-20010904/DTD/svg10.dtd">
<svg version="1.0" xmlns="http://www.w3.org/2000/svg"
 width="840.000000pt" height="840.000000pt" viewBox="0 0 840.000000 840.000000"
 preserveAspectRatio="xMidYMid meet">
<metadata>
Created by potrace 1.14, written by Peter Selinger 2001-2017
</metadata>
<g transform="translate(0.000000,840.000000) scale(0.100000,-0.100000)"
fill="#000000" stroke="none">
<path d="M5030 6692 c0 -4 -18 -6 -40 -4 -22 2 -48 1 -58 -4 -9 -4 -21 -6 -25
-5 -16 3 -87 -22 -87 -31 0 -5 -4 -6 -10 -3 -5 3 -10 1 -10 -5 0 -6 -4 -8 -10
-5 -5 3 -10 1 -10 -5 0 -6 -8 -14 -17 -17 -16 -6 -57 -43 -48 -43 3 0 -3 -9
-12 -19 -30 -33 -43 -50 -43 -56 0 -3 6 -3 13 1 6 4 4 -2 -5 -13 -10 -11 -18
-25 -18 -31 0 -7 -3 -12 -8 -12 -4 0 -12 -16 -18 -35 -8 -25 -8 -35 0 -35 6 0
5 -4 -3 -9 -8 -5 -11 -16 -8 -25 4 -9 1 -16 -5 -16 -6 0 -8 -3 -5 -6 3 -4 2
-14 -3 -24 -5 -10 -6 -20 -3 -24 11 -11 12 -36 1 -36 -7 0 -6 -5 1 -14 9 -10
9 -16 1 -21 -8 -5 -7 -12 4 -24 12 -13 13 -20 4 -29 -9 -9 -9 -12 1 -12 8 0
11 -6 7 -15 -3 -8 -1 -15 5 -15 6 0 9 -7 5 -15 -3 -8 -1 -15 5 -15 6 0 8 -4 5
-9 -4 -5 -3 -11 1 -13 5 -1 15 -23 24 -48 9 -25 22 -44 29 -42 6 1 9 -2 5 -8
-3 -5 -2 -10 2 -10 5 0 9 -10 10 -22 1 -11 7 -24 13 -28 6 -4 10 -13 8 -21 -2
-8 2 -13 7 -12 6 1 11 -13 12 -30 1 -17 8 -34 14 -38 6 -4 9 -11 5 -17 -3 -6
2 -15 11 -21 10 -6 13 -11 6 -11 -9 0 -8 -9 2 -34 8 -18 11 -36 8 -40 -4 -3
-2 -6 4 -6 5 0 10 -6 10 -12 0 -7 3 -24 7 -37 6 -17 5 -22 -4 -16 -8 5 -8 0 2
-16 8 -13 13 -33 13 -44 0 -11 4 -23 10 -27 6 -5 5 -8 -3 -8 -10 0 -10 -4 0
-22 7 -13 11 -27 9 -33 -8 -25 -5 -75 3 -75 6 0 4 -6 -3 -12 -10 -11 -14 -9
-22 5 -7 12 -17 16 -30 12 -14 -5 -19 -2 -19 12 0 15 -2 16 -10 3 -8 -13 -10
-12 -10 3 0 10 -8 17 -20 17 -11 0 -20 3 -20 8 0 4 -11 12 -25 19 -15 6 -22 7
-19 1 4 -6 -5 -2 -20 7 -14 10 -26 13 -26 9 0 -5 -5 -2 -10 7 -6 10 -20 15
-35 14 -14 -2 -25 0 -25 5 0 4 -9 10 -20 13 -11 3 -20 0 -20 -5 0 -6 -7 -5
-16 2 -8 8 -27 15 -42 17 -27 3 -62 10 -72 13 -19 7 -247 4 -257 -3 -7 -5 -22
-7 -32 -4 -12 3 -22 -1 -26 -11 -5 -14 -7 -14 -15 -2 -7 12 -12 11 -29 -4 -16
-15 -21 -16 -21 -5 0 11 -2 11 -10 -1 -5 -8 -10 -11 -10 -6 0 5 -6 4 -12 -1
-12 -10 -50 -22 -93 -30 -11 -2 -22 -8 -23 -13 -2 -6 -8 -8 -13 -4 -5 3 -9 1
-9 -5 0 -5 -9 -8 -20 -6 -11 2 -18 1 -16 -4 3 -4 -12 -13 -32 -21 -20 -7 -50
-22 -67 -34 -16 -11 -31 -20 -33 -18 -5 6 -62 -29 -62 -39 0 -6 -4 -7 -10 -4
-5 3 -10 1 -10 -6 0 -7 -3 -9 -6 -6 -11 10 -45 -13 -38 -25 4 -7 3 -8 -4 -4
-7 4 -12 2 -12 -4 0 -6 -5 -8 -10 -5 -6 3 -13 -1 -16 -9 -3 -9 -13 -16 -20
-16 -8 0 -17 -7 -20 -15 -4 -8 -10 -13 -14 -10 -5 3 -12 -1 -17 -8 -4 -7 -25
-23 -45 -36 -21 -12 -38 -25 -38 -27 0 -3 5 -2 10 1 6 3 10 4 10 1 0 -3 -10
-10 -21 -17 -17 -9 -20 -8 -14 3 3 7 -1 4 -9 -6 -9 -11 -16 -24 -16 -29 0 -4
-4 -6 -9 -3 -5 3 -12 -1 -15 -10 -3 -8 -11 -12 -17 -8 -7 4 -10 3 -7 -2 3 -5
-4 -18 -15 -29 -11 -12 -17 -14 -13 -5 4 8 0 6 -8 -4 -9 -11 -16 -24 -16 -29
0 -4 -5 -5 -12 -1 -8 5 -9 2 -4 -12 4 -10 4 -15 0 -11 -4 4 -14 1 -22 -6 -13
-10 -14 -9 -7 3 8 13 7 13 -8 1 -10 -8 -15 -16 -12 -19 2 -3 -9 -15 -25 -27
-16 -12 -27 -24 -24 -28 3 -3 -4 -8 -15 -12 -12 -3 -19 -11 -16 -16 4 -5 0 -9
-7 -9 -7 0 -22 -14 -33 -30 -11 -16 -27 -30 -35 -30 -13 0 -13 -1 0 -10 13 -8
12 -10 -3 -10 -9 0 -16 -6 -15 -12 2 -7 -2 -12 -9 -11 -6 2 -15 -6 -18 -17 -4
-11 -11 -18 -16 -15 -5 4 -9 -1 -9 -10 0 -9 -4 -14 -9 -11 -5 3 -12 -6 -15
-19 -4 -14 -11 -23 -16 -20 -5 3 -12 -4 -15 -16 -4 -13 -12 -18 -21 -15 -8 3
-13 2 -10 -2 7 -11 -29 -64 -37 -55 -4 3 -7 -1 -7 -9 0 -9 -7 -19 -16 -22 -8
-3 -12 -10 -9 -16 3 -5 2 -10 -3 -10 -5 0 -20 -15 -33 -34 -13 -19 -26 -33
-29 -31 -3 1 -14 -9 -25 -24 -12 -16 -14 -22 -4 -16 8 6 7 3 -3 -7 -10 -9 -18
-21 -18 -28 0 -6 -3 -9 -7 -7 -10 6 -34 -19 -27 -26 9 -8 -29 -46 -39 -40 -6
3 -7 1 -3 -5 8 -14 -17 -55 -27 -45 -6 6 -11 -11 -8 -29 0 -5 -6 -8 -15 -8 -8
0 -12 -4 -9 -10 3 -5 1 -10 -5 -10 -7 0 -10 -7 -7 -14 4 -10 1 -13 -9 -9 -8 3
-14 2 -13 -3 4 -22 -2 -34 -17 -34 -8 0 -13 -4 -9 -9 3 -6 -3 -14 -12 -20 -11
-6 -13 -11 -5 -11 10 0 10 -3 0 -14 -7 -8 -17 -11 -23 -8 -5 3 -7 2 -3 -3 4
-4 -1 -20 -12 -35 -11 -16 -20 -33 -20 -39 0 -5 -6 -14 -13 -18 -15 -10 -67
-89 -67 -103 0 -5 -4 -10 -9 -10 -10 0 -27 -39 -23 -52 1 -5 -4 -7 -10 -5 -7
1 -14 -8 -16 -20 -2 -13 -13 -30 -25 -38 -12 -8 -16 -15 -8 -15 8 0 5 -7 -8
-17 -12 -10 -23 -28 -24 -40 -1 -13 -7 -23 -15 -23 -7 0 -11 -4 -7 -9 3 -5 -1
-15 -8 -23 -8 -7 -12 -19 -9 -27 3 -8 0 -11 -7 -7 -6 4 -11 1 -11 -7 0 -8 -14
-33 -30 -55 -17 -23 -27 -42 -24 -42 4 0 -1 -9 -10 -19 -13 -15 -14 -20 -4
-24 10 -4 10 -6 1 -6 -7 -1 -13 -8 -13 -16 0 -8 -5 -15 -11 -15 -5 0 -7 -4 -4
-10 3 -5 -2 -10 -12 -11 -10 0 -13 -3 -6 -5 13 -6 -13 -63 -36 -78 -11 -7 -11
-10 0 -17 11 -7 11 -9 -3 -9 -11 0 -16 -6 -13 -20 2 -13 -2 -20 -11 -20 -8 0
-12 -5 -9 -10 4 -6 -3 -27 -14 -46 -12 -19 -15 -32 -9 -29 7 4 6 1 -2 -7 -9
-7 -15 -20 -15 -28 0 -8 -7 -24 -17 -34 -14 -16 -15 -22 -5 -35 9 -12 9 -13 0
-7 -8 4 -13 1 -13 -8 0 -9 -4 -16 -8 -16 -5 0 -9 -7 -10 -15 -1 -8 -3 -22 -4
-30 -1 -8 -6 -15 -11 -15 -5 0 -7 -7 -3 -15 3 -8 1 -15 -5 -15 -6 0 -8 -4 -4
-9 3 -5 1 -12 -5 -16 -6 -4 -8 -11 -5 -16 4 -5 2 -9 -4 -9 -5 0 -8 -8 -7 -17
2 -9 -3 -28 -11 -42 -7 -15 -13 -32 -13 -38 0 -7 -5 -13 -11 -13 -8 0 -8 -5 1
-15 10 -12 10 -15 0 -15 -8 0 -11 -3 -7 -6 3 -4 1 -18 -6 -33 -7 -14 -12 -37
-12 -51 0 -14 -6 -31 -13 -39 -11 -12 -11 -15 0 -22 8 -6 9 -9 1 -9 -6 0 -10
-11 -8 -25 1 -14 -2 -28 -6 -31 -5 -3 -9 -18 -9 -33 0 -15 -5 -32 -12 -39 -9
-9 -9 -12 0 -12 10 0 10 -5 2 -20 -8 -15 -8 -20 1 -20 8 0 9 -4 0 -13 -6 -8
-8 -17 -4 -20 3 -4 1 -7 -5 -7 -6 0 -9 -7 -6 -15 10 -24 10 -155 0 -155 -5 0
-3 -6 3 -13 6 -8 8 -17 4 -20 -3 -4 -1 -7 7 -7 10 0 10 -3 0 -15 -7 -8 -8 -15
-3 -15 5 0 10 -6 10 -12 3 -42 12 -79 26 -108 9 -18 14 -36 11 -41 -3 -5 0 -9
6 -9 6 0 8 -5 5 -10 -3 -6 -1 -10 4 -10 6 0 11 -7 11 -15 0 -9 7 -18 16 -22 8
-3 13 -12 10 -20 -3 -8 -2 -12 3 -9 5 3 12 -5 15 -19 4 -15 16 -27 31 -31 14
-3 25 -13 25 -21 0 -8 4 -12 8 -9 5 3 18 -4 30 -14 12 -11 26 -20 32 -20 5 0
10 -4 10 -10 0 -5 5 -10 11 -10 5 0 7 6 3 13 -8 12 17 -5 46 -32 9 -8 15 -10
18 -3 2 7 13 5 30 -4 15 -8 37 -14 49 -14 12 0 24 -6 26 -12 4 -10 6 -10 6 0
1 10 6 10 21 2 15 -8 20 -8 20 1 0 8 4 8 15 -1 8 -7 15 -10 15 -7 0 3 14 2 30
-3 17 -5 30 -6 30 -2 0 4 27 7 60 6 33 0 60 3 60 9 0 5 7 4 15 -3 11 -9 15 -9
15 -1 0 9 5 9 21 0 17 -9 20 -8 14 2 -6 9 -3 11 8 6 9 -3 18 -1 21 6 3 9 5 8
5 -1 1 -8 6 -10 13 -5 7 4 20 9 28 10 28 4 65 12 70 13 3 2 9 2 14 1 4 -1 14
4 22 10 11 9 14 8 14 -2 1 -9 4 -8 11 4 8 14 14 16 25 6 10 -8 14 -8 14 0 0 6
11 11 25 11 14 0 25 4 25 8 0 4 12 7 28 7 15 -1 39 7 54 18 16 10 32 16 36 13
5 -3 20 1 33 8 27 14 76 28 83 24 2 -2 13 6 25 16 16 14 21 16 21 5 1 -10 5
-8 15 5 8 11 15 16 15 12 0 -5 7 -3 15 4 8 7 15 9 15 5 0 -5 10 0 22 11 14 13
19 14 14 4 -5 -9 -2 -8 7 2 8 10 16 15 20 12 5 -6 40 11 71 36 12 9 16 10 12
3 -10 -18 4 -16 18 2 6 8 20 16 31 18 40 8 84 29 89 43 3 7 12 11 21 8 8 -3
15 -1 15 6 0 6 5 8 10 5 6 -3 13 1 16 9 3 9 11 13 16 10 6 -4 14 -1 18 5 4 7
16 13 28 14 11 0 19 4 16 8 -2 4 12 13 31 20 19 7 35 17 35 21 0 4 9 8 21 8
13 0 18 4 13 12 -5 7 -2 9 9 5 9 -3 17 -2 19 3 2 5 10 10 18 12 8 2 22 10 30
18 8 8 22 16 30 18 8 2 23 11 33 19 9 9 17 12 17 7 0 -5 7 0 15 10 8 11 15 16
15 11 0 -4 9 2 20 15 11 13 20 17 20 10 0 -7 11 -1 24 13 16 17 26 22 29 14 2
-7 9 -3 16 11 6 12 18 22 26 22 8 0 15 5 15 11 0 6 7 9 15 5 9 -3 15 0 15 10
0 8 4 13 9 10 5 -3 20 6 35 21 14 14 26 23 26 19 0 -4 9 -2 20 4 11 6 17 16
14 22 -4 7 -3 8 4 4 7 -4 12 -2 12 4 0 6 5 8 10 5 6 -3 13 1 16 10 4 9 13 14
20 11 7 -3 16 4 19 15 4 12 12 18 21 15 8 -3 14 -1 14 5 0 5 11 14 25 21 13 6
22 14 20 19 -3 4 3 10 14 14 10 3 29 14 41 25 12 11 27 17 33 13 5 -3 7 -1 4
4 -4 6 7 16 23 23 16 7 28 16 25 19 -2 4 14 18 35 32 22 13 40 28 40 32 0 5 4
6 9 2 5 -3 13 4 16 16 4 11 12 18 18 16 7 -2 18 2 25 9 7 8 10 14 7 14 -3 0 4
9 15 20 11 11 24 20 30 20 5 0 15 9 22 20 7 11 21 20 31 20 10 0 16 4 12 9 -3
5 4 12 15 16 11 4 18 10 15 15 -5 8 23 25 37 22 4 -1 10 7 13 18 3 10 15 22
26 25 11 4 18 9 16 12 -7 6 30 43 44 43 5 0 8 3 6 8 -3 4 7 16 21 26 15 12 22
14 17 5 -4 -8 1 -5 12 6 11 11 19 22 17 24 -2 2 11 15 28 28 18 12 28 23 24
23 -4 0 8 14 28 32 19 17 34 34 33 37 -2 3 10 18 25 33 15 15 28 24 28 20 0
-9 27 31 29 43 1 6 12 15 24 22 12 7 18 12 13 13 -5 0 2 10 15 23 14 12 25 26
26 30 4 15 31 36 38 29 5 -4 5 -1 1 6 -4 6 -1 19 6 27 29 32 38 45 33 45 -3 0
5 10 19 23 14 12 27 29 28 37 2 8 8 19 15 25 7 5 13 17 15 25 2 8 12 23 22 33
11 9 16 20 13 24 -4 3 3 14 15 24 11 11 18 19 13 19 -4 0 -2 7 5 15 6 8 9 19
5 25 -4 6 -1 9 5 8 6 -2 19 16 29 40 9 23 20 40 24 36 4 -4 7 -2 7 4 0 7 -5
12 -12 12 -6 0 -2 9 10 20 24 23 29 35 10 24 -7 -4 -5 2 5 13 9 11 17 30 17
43 0 12 8 29 18 36 14 11 14 15 3 23 -9 6 -10 11 -2 15 6 4 11 17 11 30 0 12
5 27 12 34 9 9 9 12 -2 12 -11 0 -11 3 -2 12 7 7 12 24 12 38 0 15 3 30 7 34
11 10 11 46 0 46 -5 0 -5 6 2 13 8 10 7 17 -1 25 -9 9 -9 12 1 12 11 0 11 3 1
15 -10 12 -10 15 0 15 8 0 9 4 4 13 -11 15 -11 38 -1 55 5 7 3 12 -4 12 -8 0
-8 4 1 15 8 9 9 15 2 15 -6 0 -9 9 -7 20 2 11 0 22 -5 25 -4 3 -6 14 -3 24 3
10 0 22 -6 25 -5 4 -8 13 -4 21 3 8 1 15 -4 15 -5 0 -9 10 -8 23 1 12 -2 28
-7 34 -6 7 -8 20 -4 28 3 9 2 13 -3 10 -5 -3 -12 -1 -16 5 -3 5 0 10 7 10 8 0
6 5 -5 11 -9 6 -15 14 -12 20 4 5 0 12 -9 15 -8 3 -13 14 -11 25 2 10 0 19 -6
19 -5 0 -9 9 -9 20 0 12 -7 20 -17 20 -15 0 -16 2 -3 10 13 8 12 10 -3 10 -15
0 -16 2 -5 14 9 10 15 11 20 2 6 -8 8 -7 8 2 0 10 5 10 20 2 12 -6 20 -7 20
-1 0 5 9 7 20 4 11 -3 20 -10 20 -15 0 -7 5 -6 13 1 8 6 16 8 19 5 3 -3 23 -7
44 -10 21 -3 42 -10 46 -17 6 -9 8 -9 8 1 0 13 21 12 31 -1 3 -4 22 -9 42 -10
21 -1 37 -5 37 -9 0 -5 8 -8 18 -8 10 0 24 -6 31 -12 11 -11 13 -10 7 0 -4 6
13 1 38 -12 28 -15 46 -20 46 -13 0 7 7 4 14 -5 7 -10 21 -18 30 -18 9 0 16
-4 16 -10 0 -5 9 -10 21 -10 11 0 18 -4 15 -8 -2 -4 5 -9 17 -9 12 -1 23 -7
25 -13 2 -5 12 -10 23 -10 11 0 19 -7 19 -17 0 -14 2 -15 9 -5 6 10 10 10 21
-2 7 -9 16 -13 21 -10 5 3 9 0 9 -6 0 -6 5 -8 10 -5 6 4 18 1 27 -7 14 -11 16
-11 8 2 -7 13 -6 13 7 2 9 -7 36 -14 60 -15 23 -1 46 -6 49 -11 4 -4 17 -3 29
4 18 9 24 9 30 0 5 -9 9 -9 14 -1 4 6 12 9 17 6 5 -4 9 -2 9 3 0 5 11 7 25 4
16 -3 25 0 25 9 0 7 3 10 6 6 4 -3 22 0 41 8 19 8 39 12 44 9 5 -3 9 -1 9 5 0
6 11 13 25 17 14 3 23 9 21 13 -3 4 9 13 25 20 16 7 27 17 24 21 -3 5 4 11 15
15 18 6 25 17 21 38 -1 5 3 6 9 2 5 -3 10 -1 10 5 0 6 5 8 10 5 6 -4 10 -3 9
2 -4 22 2 43 11 38 6 -3 7 1 4 9 -4 9 -1 16 6 16 7 0 10 7 6 15 -3 8 -1 15 4
15 5 0 7 7 4 15 -4 9 -1 15 7 15 10 0 10 3 1 12 -8 8 -8 17 -1 30 10 18 3 123
-9 143 -4 6 -8 19 -9 29 -2 11 -8 25 -14 32 -6 7 -8 17 -5 23 3 5 -1 11 -9 15
-8 3 -15 12 -15 21 0 8 -4 15 -9 15 -5 0 -12 8 -15 18 -7 19 -43 60 -74 81
-12 8 -18 19 -15 24 3 6 1 7 -6 3 -6 -4 -14 -1 -17 8 -3 8 -14 13 -25 11 -11
-2 -17 0 -14 6 4 5 -1 9 -9 9 -8 0 -18 5 -22 12 -5 7 -3 8 6 3 8 -5 11 -4 6 3
-4 6 -13 9 -21 5 -8 -3 -15 0 -15 7 0 6 -4 9 -9 5 -6 -3 -14 3 -20 12 -6 10
-11 14 -11 9 0 -5 -8 -2 -17 5 -11 9 -14 10 -9 2 5 -9 2 -11 -8 -7 -9 3 -16
10 -16 15 0 5 -10 9 -23 9 -12 0 -33 8 -46 17 -14 9 -21 11 -17 5 9 -16 -7
-15 -22 0 -7 7 -12 8 -12 4 0 -5 -8 -2 -17 5 -15 12 -16 12 -8 -1 8 -13 7 -13
-10 0 -10 8 -20 14 -22 12 -3 -2 -8 0 -11 4 -4 4 -1 4 6 0 7 -4 12 -1 12 9 0
8 7 18 15 21 8 4 13 10 10 14 -3 5 4 11 15 15 11 3 19 10 17 15 -1 5 7 16 18
25 11 9 13 14 5 10 -8 -4 -3 5 12 18 15 14 24 28 21 31 -4 3 0 6 7 6 7 0 10 3
7 7 -4 3 2 12 13 20 11 8 20 23 20 34 0 10 5 19 11 19 5 0 7 5 4 10 -3 6 -2
10 2 10 8 0 34 52 37 73 0 4 7 12 15 16 10 7 10 10 1 16 -9 5 -9 9 -1 14 6 4
14 18 16 31 2 13 10 27 16 31 8 5 8 8 -1 14 -8 5 -6 11 7 22 10 8 12 12 5 8
-10 -5 -11 0 -6 22 4 15 11 34 17 41 6 8 6 12 -2 12 -9 0 -9 5 -1 20 6 11 7
20 3 20 -4 0 -9 16 -10 35 -4 46 -7 59 -14 65 -4 3 -9 16 -10 30 -2 14 -12 32
-21 41 -10 9 -18 24 -18 33 0 10 -4 14 -10 11 -5 -3 -10 -2 -10 2 0 16 -51 63
-62 57 -7 -4 -8 -2 -4 4 6 11 2 13 -19 12 -3 -1 -13 6 -22 15 -8 9 -20 14 -27
12 -6 -2 -19 5 -28 16 -10 11 -18 15 -18 9 0 -7 -9 -6 -27 3 -21 11 -29 12
-35 2 -6 -9 -8 -9 -8 2 0 10 -3 11 -14 2 -11 -9 -15 -8 -20 4 -3 9 -11 13 -16
10 -6 -4 -27 -9 -46 -11 -20 -2 -45 -9 -56 -15 -11 -6 -18 -7 -15 -2 4 6 -17
4 -45 -3 -29 -8 -55 -19 -59 -25 -4 -8 -8 -7 -12 2 -4 10 -6 10 -6 2 -1 -7 -8
-13 -16 -13 -8 0 -15 -5 -15 -11 0 -5 -5 -7 -10 -4 -6 3 -23 -3 -39 -14 -16
-12 -32 -21 -36 -21 -4 0 -14 -8 -22 -17 -8 -10 -12 -12 -8 -5 10 19 -106 -64
-123 -89 -8 -11 -20 -18 -29 -15 -8 3 -12 2 -9 -3 3 -5 -2 -12 -12 -16 -25 -9
-27 -7 -26 20 1 14 -2 25 -5 25 -6 0 -11 22 -13 60 -1 8 -4 17 -9 20 -4 3 -9
14 -11 25 -1 11 -8 26 -15 33 -7 7 -10 19 -7 27 4 9 0 15 -10 15 -10 0 -13 6
-10 15 4 8 1 15 -4 15 -6 0 -21 20 -33 45 -12 24 -26 42 -31 39 -4 -3 -8 2 -8
10 0 22 -38 58 -53 50 -7 -4 -9 -4 -5 1 10 10 -11 37 -23 29 -5 -3 -9 0 -9 6
0 6 -4 9 -9 5 -6 -3 -21 7 -35 22 -14 15 -31 28 -38 29 -7 1 -32 9 -55 17 -31
12 -43 13 -47 4 -2 -7 -5 -4 -5 6 -1 16 -21 26 -21 9z"/>
</g>
</svg>
